<mxfile host="65bd71144e">
    <diagram id="ciPo3X5teLXdfqjWm5yF" name="Page-1">
        <mxGraphModel dx="2786" dy="700" grid="1" gridSize="10" guides="1" tooltips="1" connect="1" arrows="1" fold="1" page="1" pageScale="1" pageWidth="850" pageHeight="1100" math="0" shadow="0">
            <root>
                <mxCell id="0"/>
                <mxCell id="1" parent="0"/>
                <mxCell id="550" style="edgeStyle=none;html=1;exitX=0;exitY=0.25;exitDx=0;exitDy=0;exitPerimeter=0;entryX=0;entryY=0.5;entryDx=0;entryDy=0;endArrow=oval;endFill=1;rounded=0;startArrow=none;startFill=0;" parent="1" target="554" edge="1">
                    <mxGeometry relative="1" as="geometry">
                        <Array as="points">
                            <mxPoint x="-270" y="1125"/>
                        </Array>
                        <mxPoint x="-455" y="1125" as="sourcePoint"/>
                    </mxGeometry>
                </mxCell>
                <mxCell id="551" style="edgeStyle=none;rounded=0;html=1;endArrow=oval;endFill=1;startArrow=none;startFill=0;" parent="1" edge="1">
                    <mxGeometry relative="1" as="geometry">
                        <mxPoint x="-190" y="1325" as="targetPoint"/>
                        <mxPoint x="-190" y="1115" as="sourcePoint"/>
                        <Array as="points">
                            <mxPoint x="-190" y="1135"/>
                        </Array>
                    </mxGeometry>
                </mxCell>
                <mxCell id="552" style="edgeStyle=none;html=1;exitX=1;exitY=0.12;exitDx=0;exitDy=0;endArrow=oval;endFill=1;startArrow=none;startFill=0;" parent="1" source="554" edge="1">
                    <mxGeometry relative="1" as="geometry">
                        <mxPoint x="-110" y="1078" as="targetPoint"/>
                    </mxGeometry>
                </mxCell>
                <mxCell id="553" style="edgeStyle=none;rounded=0;jumpStyle=none;html=1;exitX=1;exitY=0.88;exitDx=0;exitDy=0;strokeColor=default;strokeWidth=1;startArrow=none;startFill=0;endArrow=none;endFill=0;endSize=6;" parent="1" source="554" edge="1">
                    <mxGeometry relative="1" as="geometry">
                        <mxPoint x="-190" y="1111.8837209302326" as="targetPoint"/>
                        <Array as="points">
                            <mxPoint x="-190" y="1098"/>
                            <mxPoint x="-190" y="1115"/>
                        </Array>
                    </mxGeometry>
                </mxCell>
                <mxCell id="554" value="" style="shape=mxgraph.electrical.electro-mechanical.twoWaySwitch;aspect=fixed;elSwitchState=2;flipV=1;" parent="1" vertex="1">
                    <mxGeometry x="-270" y="1075" width="75" height="26" as="geometry"/>
                </mxCell>
                <mxCell id="555" style="edgeStyle=none;html=1;exitX=0;exitY=0.57;exitDx=0;exitDy=0;exitPerimeter=0;endArrow=none;endFill=0;entryX=1;entryY=0.5;entryDx=0;entryDy=0;entryPerimeter=0;" parent="1" source="556" edge="1">
                    <mxGeometry relative="1" as="geometry">
                        <mxPoint x="-470" y="1325" as="targetPoint"/>
                    </mxGeometry>
                </mxCell>
                <mxCell id="556" value="" style="verticalLabelPosition=bottom;shadow=0;dashed=0;align=center;html=1;verticalAlign=top;shape=mxgraph.electrical.opto_electronics.led_2;pointerEvents=1;" parent="1" vertex="1">
                    <mxGeometry x="-450" y="1285" width="100" height="70" as="geometry"/>
                </mxCell>
                <mxCell id="557" style="edgeStyle=none;rounded=0;html=1;startArrow=none;startFill=0;endArrow=none;endFill=0;" parent="1" source="558" edge="1">
                    <mxGeometry relative="1" as="geometry">
                        <mxPoint x="-170" y="1325" as="targetPoint"/>
                    </mxGeometry>
                </mxCell>
                <mxCell id="558" value="" style="pointerEvents=1;verticalLabelPosition=bottom;shadow=0;dashed=0;align=center;html=1;verticalAlign=top;shape=mxgraph.electrical.resistors.resistor_2;" parent="1" vertex="1">
                    <mxGeometry x="-360" y="1315" width="100" height="20" as="geometry"/>
                </mxCell>
                <mxCell id="559" style="edgeStyle=none;rounded=0;html=1;exitX=1;exitY=0.5;exitDx=0;exitDy=0;startArrow=none;startFill=0;endArrow=none;endFill=0;" parent="1" source="561" edge="1">
                    <mxGeometry relative="1" as="geometry">
                        <mxPoint x="-170" y="1325" as="targetPoint"/>
                        <mxPoint x="-160" y="1235" as="sourcePoint"/>
                        <Array as="points">
                            <mxPoint x="-110" y="1325"/>
                        </Array>
                    </mxGeometry>
                </mxCell>
                <mxCell id="560" style="edgeStyle=none;html=1;exitX=0;exitY=0.5;exitDx=0;exitDy=0;endArrow=none;endFill=0;" parent="1" source="561" edge="1">
                    <mxGeometry relative="1" as="geometry">
                        <mxPoint x="-110" y="960" as="targetPoint"/>
                        <Array as="points">
                            <mxPoint x="-110" y="1085"/>
                        </Array>
                    </mxGeometry>
                </mxCell>
                <mxCell id="561" value="" style="pointerEvents=1;verticalLabelPosition=bottom;shadow=0;dashed=0;align=center;html=1;verticalAlign=top;shape=mxgraph.electrical.miscellaneous.batteryStack;rotation=90;flipV=0;flipH=1;" parent="1" vertex="1">
                    <mxGeometry x="-160" y="1125" width="100" height="60" as="geometry"/>
                </mxCell>
                <mxCell id="562" value="&lt;div style=&quot;&quot;&gt;2-Bit Full adder with chips&lt;/div&gt;" style="text;strokeColor=none;align=left;fillColor=none;html=1;verticalAlign=middle;whiteSpace=wrap;rounded=0;" parent="1" vertex="1">
                    <mxGeometry x="-1140" y="281" width="300" height="109" as="geometry"/>
                </mxCell>
                <mxCell id="563" value="Justin, L&lt;br&gt;TEJ3M&lt;br&gt;4-19&lt;br&gt;&lt;span style=&quot;color: rgba(0, 0, 0, 0); font-family: monospace; font-size: 0px;&quot;&gt;%3CmxGraphModel%3E%3Croot%3E%3CmxCell%20id%3D%220%22%2F%3E%3CmxCell%20id%3D%221%22%20parent%3D%220%22%2F%3E%3CmxCell%20id%3D%222%22%20value%3D%225%20V%22%20style%3D%22text%3BstrokeColor%3Dnone%3Balign%3Dcenter%3BfillColor%3Dnone%3Bhtml%3D1%3BverticalAlign%3Dmiddle%3BwhiteSpace%3Dwrap%3Brounded%3D0%3B%22%20vertex%3D%221%22%20parent%3D%221%22%3E%3CmxGeometry%20x%3D%22550%22%20y%3D%22275%22%20width%3D%2260%22%20height%3D%2230%22%20as%3D%22geometry%22%2F%3E%3C%2FmxCell%3E%3C%2Froot%3E%3C%2FmxGraphModel%3E&lt;/span&gt;" style="text;strokeColor=none;align=left;fillColor=none;html=1;verticalAlign=middle;whiteSpace=wrap;rounded=0;" parent="1" vertex="1">
                    <mxGeometry x="-1140" y="300" width="60" height="30" as="geometry"/>
                </mxCell>
                <mxCell id="564" value="5V +" style="text;strokeColor=none;align=center;fillColor=none;html=1;verticalAlign=middle;whiteSpace=wrap;rounded=0;" parent="1" vertex="1">
                    <mxGeometry x="-90" y="1145" width="60" height="30" as="geometry"/>
                </mxCell>
                <mxCell id="565" value="220 Î©" style="text;strokeColor=none;align=center;fillColor=none;html=1;verticalAlign=middle;whiteSpace=wrap;rounded=0;labelBackgroundColor=none;" parent="1" vertex="1">
                    <mxGeometry x="-340" y="1345" width="60" height="30" as="geometry"/>
                </mxCell>
                <mxCell id="566" value="Input B" style="text;strokeColor=none;align=center;fillColor=none;html=1;verticalAlign=middle;whiteSpace=wrap;rounded=0;labelBackgroundColor=none;" parent="1" vertex="1">
                    <mxGeometry x="-262.5" y="1105" width="60" height="30" as="geometry"/>
                </mxCell>
                <mxCell id="567" value="sum" style="text;strokeColor=none;align=center;fillColor=none;html=1;verticalAlign=middle;whiteSpace=wrap;rounded=0;labelBackgroundColor=none;" parent="1" vertex="1">
                    <mxGeometry x="-430" y="1355" width="60" height="30" as="geometry"/>
                </mxCell>
                <mxCell id="568" value="+" style="text;strokeColor=none;align=center;fillColor=none;html=1;verticalAlign=middle;whiteSpace=wrap;rounded=0;" parent="1" vertex="1">
                    <mxGeometry x="-100" y="1095" width="60" height="30" as="geometry"/>
                </mxCell>
                <mxCell id="569" value="-" style="text;strokeColor=none;align=center;fillColor=none;html=1;verticalAlign=middle;whiteSpace=wrap;rounded=0;" parent="1" vertex="1">
                    <mxGeometry x="-110" y="1195" width="60" height="30" as="geometry"/>
                </mxCell>
                <mxCell id="570" value="Input A" style="text;strokeColor=none;align=center;fillColor=none;html=1;verticalAlign=middle;whiteSpace=wrap;rounded=0;labelBackgroundColor=none;" parent="1" vertex="1">
                    <mxGeometry x="-240" y="975" width="60" height="30" as="geometry"/>
                </mxCell>
                <mxCell id="571" style="edgeStyle=none;html=1;endArrow=oval;endFill=1;rounded=0;startArrow=none;startFill=0;strokeColor=default;strokeWidth=1;endSize=6;jumpStyle=none;" parent="1" edge="1">
                    <mxGeometry relative="1" as="geometry">
                        <mxPoint x="-190" y="1215" as="targetPoint"/>
                        <mxPoint x="-170" y="975" as="sourcePoint"/>
                        <Array as="points">
                            <mxPoint x="-170" y="1215"/>
                            <mxPoint x="-190" y="1215"/>
                        </Array>
                    </mxGeometry>
                </mxCell>
                <mxCell id="572" style="edgeStyle=none;rounded=0;html=1;exitX=1;exitY=0.88;exitDx=0;exitDy=0;startArrow=none;startFill=0;endArrow=none;endFill=0;" parent="1" source="575" edge="1">
                    <mxGeometry relative="1" as="geometry">
                        <mxPoint x="-170" y="975" as="targetPoint"/>
                    </mxGeometry>
                </mxCell>
                <mxCell id="573" style="edgeStyle=none;rounded=0;jumpStyle=none;html=1;exitX=1;exitY=0.12;exitDx=0;exitDy=0;strokeColor=default;strokeWidth=1;startArrow=none;startFill=0;endArrow=oval;endFill=1;endSize=6;" parent="1" source="575" edge="1">
                    <mxGeometry relative="1" as="geometry">
                        <mxPoint x="-110" y="955" as="targetPoint"/>
                    </mxGeometry>
                </mxCell>
                <mxCell id="574" style="edgeStyle=none;rounded=0;html=1;endArrow=none;endFill=0;startArrow=oval;startFill=1;" parent="1" edge="1">
                    <mxGeometry relative="1" as="geometry">
                        <mxPoint x="-485" y="1085" as="targetPoint"/>
                        <Array as="points">
                            <mxPoint x="-310" y="1045"/>
                            <mxPoint x="-485" y="1045"/>
                        </Array>
                        <mxPoint x="-310" y="965" as="sourcePoint"/>
                    </mxGeometry>
                </mxCell>
                <mxCell id="602" style="edgeStyle=none;html=1;exitX=0;exitY=0.5;exitDx=0;exitDy=0;startArrow=none;startFill=0;endArrow=none;endFill=0;" parent="1" source="575" edge="1">
                    <mxGeometry relative="1" as="geometry">
                        <mxPoint x="-310" y="965" as="targetPoint"/>
                    </mxGeometry>
                </mxCell>
                <mxCell id="608" style="edgeStyle=none;rounded=0;html=1;exitX=0;exitY=0.5;exitDx=0;exitDy=0;startArrow=none;startFill=0;endArrow=none;endFill=0;fillColor=none;" parent="1" source="575" edge="1">
                    <mxGeometry relative="1" as="geometry">
                        <mxPoint x="-630" y="965" as="targetPoint"/>
                    </mxGeometry>
                </mxCell>
                <mxCell id="575" value="" style="shape=mxgraph.electrical.electro-mechanical.twoWaySwitch;aspect=fixed;elSwitchState=2;flipV=1;" parent="1" vertex="1">
                    <mxGeometry x="-285" y="952" width="75" height="26" as="geometry"/>
                </mxCell>
                <mxCell id="576" value="" style="edgeStyle=none;orthogonalLoop=1;jettySize=auto;html=1;rounded=0;strokeColor=default;strokeWidth=1;startArrow=none;startFill=0;endArrow=none;endFill=0;endSize=6;jumpStyle=none;" parent="1" edge="1">
                    <mxGeometry width="80" relative="1" as="geometry">
                        <mxPoint x="-190" y="1115" as="sourcePoint"/>
                        <mxPoint x="-190" y="1115" as="targetPoint"/>
                        <Array as="points"/>
                    </mxGeometry>
                </mxCell>
                <mxCell id="583" style="edgeStyle=none;html=1;exitX=0;exitY=0.75;exitDx=0;exitDy=0;exitPerimeter=0;endArrow=none;endFill=0;" parent="1" edge="1">
                    <mxGeometry relative="1" as="geometry">
                        <mxPoint x="-484.9375" y="1075" as="targetPoint"/>
                        <mxPoint x="-485" y="1125" as="sourcePoint"/>
                    </mxGeometry>
                </mxCell>
                <mxCell id="630" style="edgeStyle=none;rounded=0;html=1;exitX=1;exitY=0.5;exitDx=0;exitDy=0;exitPerimeter=0;entryX=0;entryY=0.25;entryDx=0;entryDy=0;entryPerimeter=0;startArrow=none;startFill=0;endArrow=none;endFill=0;" parent="1" source="585" target="616" edge="1">
                    <mxGeometry relative="1" as="geometry"/>
                </mxCell>
                <mxCell id="585" value="" style="verticalLabelPosition=bottom;shadow=0;dashed=0;align=center;html=1;verticalAlign=top;shape=mxgraph.electrical.logic_gates.logic_gate;operation=xor;rotation=90;" parent="1" vertex="1">
                    <mxGeometry x="-520" y="1145" width="100" height="60" as="geometry"/>
                </mxCell>
                <mxCell id="595" value="" style="verticalLabelPosition=bottom;shadow=0;dashed=0;align=center;html=1;verticalAlign=top;shape=mxgraph.electrical.opto_electronics.led_2;pointerEvents=1;" parent="1" vertex="1">
                    <mxGeometry x="-470" y="1435" width="100" height="70" as="geometry"/>
                </mxCell>
                <mxCell id="596" style="edgeStyle=none;rounded=0;html=1;startArrow=none;startFill=0;endArrow=none;endFill=0;" parent="1" source="597" edge="1">
                    <mxGeometry relative="1" as="geometry">
                        <mxPoint x="-190" y="1475" as="targetPoint"/>
                    </mxGeometry>
                </mxCell>
                <mxCell id="597" value="" style="pointerEvents=1;verticalLabelPosition=bottom;shadow=0;dashed=0;align=center;html=1;verticalAlign=top;shape=mxgraph.electrical.resistors.resistor_2;" parent="1" vertex="1">
                    <mxGeometry x="-380" y="1465" width="100" height="20" as="geometry"/>
                </mxCell>
                <mxCell id="598" value="220 Î©" style="text;strokeColor=none;align=center;fillColor=none;html=1;verticalAlign=middle;whiteSpace=wrap;rounded=0;labelBackgroundColor=none;" parent="1" vertex="1">
                    <mxGeometry x="-360" y="1495" width="60" height="30" as="geometry"/>
                </mxCell>
                <mxCell id="599" value="Cout" style="text;strokeColor=none;align=center;fillColor=none;html=1;verticalAlign=middle;whiteSpace=wrap;rounded=0;labelBackgroundColor=none;" parent="1" vertex="1">
                    <mxGeometry x="-450" y="1505" width="60" height="30" as="geometry"/>
                </mxCell>
                <mxCell id="600" value="" style="edgeStyle=none;orthogonalLoop=1;jettySize=auto;html=1;endArrow=none;endFill=0;" parent="1" edge="1">
                    <mxGeometry width="80" relative="1" as="geometry">
                        <mxPoint x="-190" y="1318.60009765625" as="sourcePoint"/>
                        <mxPoint x="-190" y="1475" as="targetPoint"/>
                        <Array as="points"/>
                    </mxGeometry>
                </mxCell>
                <mxCell id="604" value="" style="edgeStyle=none;orthogonalLoop=1;jettySize=auto;html=1;endArrow=none;endFill=0;" parent="1" target="603" edge="1">
                    <mxGeometry width="80" relative="1" as="geometry">
                        <mxPoint x="-590" y="1195" as="sourcePoint"/>
                        <mxPoint x="-590" y="1475" as="targetPoint"/>
                        <Array as="points"/>
                    </mxGeometry>
                </mxCell>
                <mxCell id="605" style="edgeStyle=none;html=1;exitX=0;exitY=0.25;exitDx=0;exitDy=0;exitPerimeter=0;entryX=0;entryY=0.5;entryDx=0;entryDy=0;startArrow=none;startFill=0;endArrow=none;endFill=0;rounded=0;" parent="1" source="603" target="554" edge="1">
                    <mxGeometry relative="1" as="geometry">
                        <Array as="points">
                            <mxPoint x="-575" y="1085"/>
                        </Array>
                    </mxGeometry>
                </mxCell>
                <mxCell id="609" style="edgeStyle=none;rounded=0;html=1;exitX=0;exitY=0.75;exitDx=0;exitDy=0;exitPerimeter=0;startArrow=none;startFill=0;endArrow=none;endFill=0;fillColor=none;strokeColor=default;" parent="1" source="603" edge="1">
                    <mxGeometry relative="1" as="geometry">
                        <mxPoint x="-630" y="960" as="targetPoint"/>
                        <Array as="points">
                            <mxPoint x="-605" y="1020"/>
                            <mxPoint x="-620" y="1020"/>
                            <mxPoint x="-630" y="1020"/>
                        </Array>
                    </mxGeometry>
                </mxCell>
                <mxCell id="603" value="" style="verticalLabelPosition=bottom;shadow=0;dashed=0;align=center;html=1;verticalAlign=top;shape=mxgraph.electrical.logic_gates.logic_gate;operation=and;rotation=90;" parent="1" vertex="1">
                    <mxGeometry x="-640" y="1120" width="100" height="60" as="geometry"/>
                </mxCell>
                <mxCell id="611" value="" style="edgeStyle=none;html=1;exitX=0;exitY=0.57;exitDx=0;exitDy=0;exitPerimeter=0;endArrow=none;endFill=0;" parent="1" source="595" edge="1">
                    <mxGeometry relative="1" as="geometry">
                        <mxPoint x="-460" y="1474.875" as="targetPoint"/>
                        <mxPoint x="-470" y="1474.9" as="sourcePoint"/>
                    </mxGeometry>
                </mxCell>
                <mxCell id="614" style="edgeStyle=none;html=1;entryX=1;entryY=0.5;entryDx=0;entryDy=0;entryPerimeter=0;endArrow=none;endFill=0;exitX=0;exitY=0.25;exitDx=0;exitDy=0;exitPerimeter=0;rounded=0;" parent="1" source="612" target="603" edge="1">
                    <mxGeometry relative="1" as="geometry">
                        <mxPoint x="-590" y="1455" as="sourcePoint"/>
                        <Array as="points">
                            <mxPoint x="-590" y="1460"/>
                        </Array>
                    </mxGeometry>
                </mxCell>
                <mxCell id="612" value="" style="verticalLabelPosition=bottom;shadow=0;dashed=0;align=center;html=1;verticalAlign=top;shape=mxgraph.electrical.logic_gates.logic_gate;operation=or;" parent="1" vertex="1">
                    <mxGeometry x="-550" y="1445" width="100" height="60" as="geometry"/>
                </mxCell>
                <mxCell id="628" style="edgeStyle=none;rounded=0;html=1;exitX=1;exitY=0.5;exitDx=0;exitDy=0;exitPerimeter=0;entryX=0;entryY=0.75;entryDx=0;entryDy=0;entryPerimeter=0;startArrow=none;startFill=0;endArrow=none;endFill=0;" parent="1" source="613" target="612" edge="1">
                    <mxGeometry relative="1" as="geometry">
                        <Array as="points">
                            <mxPoint x="-730" y="1490"/>
                        </Array>
                    </mxGeometry>
                </mxCell>
                <mxCell id="631" style="edgeStyle=none;rounded=0;html=1;exitX=0;exitY=0.25;exitDx=0;exitDy=0;exitPerimeter=0;startArrow=none;startFill=0;endArrow=oval;endFill=1;" parent="1" source="613" edge="1">
                    <mxGeometry relative="1" as="geometry">
                        <mxPoint x="-610" y="1225" as="targetPoint"/>
                        <Array as="points">
                            <mxPoint x="-660" y="1160"/>
                            <mxPoint x="-660" y="1205"/>
                            <mxPoint x="-610" y="1205"/>
                        </Array>
                    </mxGeometry>
                </mxCell>
                <mxCell id="754" style="edgeStyle=none;html=1;exitX=0;exitY=0.75;exitDx=0;exitDy=0;exitPerimeter=0;fontColor=#F0F0F0;endArrow=none;endFill=0;rounded=0;" parent="1" source="613" edge="1">
                    <mxGeometry relative="1" as="geometry">
                        <mxPoint x="-760" y="900" as="targetPoint"/>
                        <Array as="points">
                            <mxPoint x="-745" y="1150"/>
                            <mxPoint x="-760" y="1150"/>
                        </Array>
                    </mxGeometry>
                </mxCell>
                <mxCell id="613" value="" style="verticalLabelPosition=bottom;shadow=0;dashed=0;align=center;html=1;verticalAlign=top;shape=mxgraph.electrical.logic_gates.logic_gate;operation=and;rotation=90;" parent="1" vertex="1">
                    <mxGeometry x="-780" y="1180" width="100" height="60" as="geometry"/>
                </mxCell>
                <mxCell id="617" style="edgeStyle=none;rounded=0;html=1;exitX=1;exitY=0.5;exitDx=0;exitDy=0;exitPerimeter=0;endArrow=none;endFill=0;" parent="1" source="616" edge="1">
                    <mxGeometry relative="1" as="geometry">
                        <mxPoint x="-470" y="1325" as="targetPoint"/>
                    </mxGeometry>
                </mxCell>
                <mxCell id="632" style="edgeStyle=none;rounded=0;html=1;exitX=0;exitY=0.75;exitDx=0;exitDy=0;exitPerimeter=0;startArrow=none;startFill=0;endArrow=oval;endFill=1;" parent="1" source="616" edge="1">
                    <mxGeometry relative="1" as="geometry">
                        <mxPoint x="-760" y="950" as="targetPoint"/>
                        <Array as="points">
                            <mxPoint x="-680" y="950"/>
                        </Array>
                    </mxGeometry>
                </mxCell>
                <mxCell id="616" value="" style="verticalLabelPosition=bottom;shadow=0;dashed=0;align=center;html=1;verticalAlign=top;shape=mxgraph.electrical.logic_gates.logic_gate;operation=xor;rotation=90;" parent="1" vertex="1">
                    <mxGeometry x="-710" y="1245" width="100" height="60" as="geometry"/>
                </mxCell>
                <mxCell id="633" value="Cin" style="text;strokeColor=none;align=center;fillColor=none;html=1;verticalAlign=middle;whiteSpace=wrap;rounded=0;labelBackgroundColor=none;" parent="1" vertex="1">
                    <mxGeometry x="-610" y="870" width="60" height="30" as="geometry"/>
                </mxCell>
                <mxCell id="700" style="edgeStyle=none;html=1;exitX=0;exitY=0.25;exitDx=0;exitDy=0;exitPerimeter=0;entryX=0;entryY=0.5;entryDx=0;entryDy=0;endArrow=oval;endFill=1;rounded=0;startArrow=none;startFill=0;" parent="1" target="704" edge="1">
                    <mxGeometry relative="1" as="geometry">
                        <Array as="points">
                            <mxPoint x="-340" y="454"/>
                        </Array>
                        <mxPoint x="-525" y="454" as="sourcePoint"/>
                    </mxGeometry>
                </mxCell>
                <mxCell id="701" style="edgeStyle=none;rounded=0;html=1;endArrow=oval;endFill=1;startArrow=none;startFill=0;" parent="1" edge="1">
                    <mxGeometry relative="1" as="geometry">
                        <mxPoint x="-260.00000000000045" y="653.9999999999998" as="targetPoint"/>
                        <mxPoint x="-260.00000000000045" y="444" as="sourcePoint"/>
                        <Array as="points">
                            <mxPoint x="-260" y="464"/>
                        </Array>
                    </mxGeometry>
                </mxCell>
                <mxCell id="702" style="edgeStyle=none;html=1;exitX=1;exitY=0.12;exitDx=0;exitDy=0;endArrow=oval;endFill=1;startArrow=none;startFill=0;" parent="1" source="704" edge="1">
                    <mxGeometry relative="1" as="geometry">
                        <mxPoint x="-180.00000000000045" y="407" as="targetPoint"/>
                    </mxGeometry>
                </mxCell>
                <mxCell id="703" style="edgeStyle=none;rounded=0;jumpStyle=none;html=1;exitX=1;exitY=0.88;exitDx=0;exitDy=0;strokeColor=default;strokeWidth=1;startArrow=none;startFill=0;endArrow=none;endFill=0;endSize=6;" parent="1" source="704" edge="1">
                    <mxGeometry relative="1" as="geometry">
                        <mxPoint x="-260.00000000000045" y="440.8837209302326" as="targetPoint"/>
                        <Array as="points">
                            <mxPoint x="-260" y="427"/>
                            <mxPoint x="-260" y="444"/>
                        </Array>
                    </mxGeometry>
                </mxCell>
                <mxCell id="704" value="" style="shape=mxgraph.electrical.electro-mechanical.twoWaySwitch;aspect=fixed;elSwitchState=2;flipV=1;" parent="1" vertex="1">
                    <mxGeometry x="-340" y="404" width="75" height="26" as="geometry"/>
                </mxCell>
                <mxCell id="705" style="edgeStyle=none;html=1;exitX=0;exitY=0.57;exitDx=0;exitDy=0;exitPerimeter=0;endArrow=none;endFill=0;entryX=1;entryY=0.5;entryDx=0;entryDy=0;entryPerimeter=0;" parent="1" source="706" edge="1">
                    <mxGeometry relative="1" as="geometry">
                        <mxPoint x="-540" y="653.9999999999998" as="targetPoint"/>
                    </mxGeometry>
                </mxCell>
                <mxCell id="706" value="" style="verticalLabelPosition=bottom;shadow=0;dashed=0;align=center;html=1;verticalAlign=top;shape=mxgraph.electrical.opto_electronics.led_2;pointerEvents=1;" parent="1" vertex="1">
                    <mxGeometry x="-520" y="614" width="100" height="70" as="geometry"/>
                </mxCell>
                <mxCell id="707" style="edgeStyle=none;rounded=0;html=1;startArrow=none;startFill=0;endArrow=none;endFill=0;" parent="1" source="708" edge="1">
                    <mxGeometry relative="1" as="geometry">
                        <mxPoint x="-240.00000000000045" y="653.9999999999998" as="targetPoint"/>
                    </mxGeometry>
                </mxCell>
                <mxCell id="708" value="" style="pointerEvents=1;verticalLabelPosition=bottom;shadow=0;dashed=0;align=center;html=1;verticalAlign=top;shape=mxgraph.electrical.resistors.resistor_2;" parent="1" vertex="1">
                    <mxGeometry x="-430" y="644" width="100" height="20" as="geometry"/>
                </mxCell>
                <mxCell id="709" style="edgeStyle=none;rounded=0;html=1;exitX=1;exitY=0.5;exitDx=0;exitDy=0;startArrow=none;startFill=0;endArrow=none;endFill=0;" parent="1" source="711" edge="1">
                    <mxGeometry relative="1" as="geometry">
                        <mxPoint x="-240.00000000000045" y="653.9999999999998" as="targetPoint"/>
                        <mxPoint x="-230" y="564" as="sourcePoint"/>
                        <Array as="points">
                            <mxPoint x="-180" y="654"/>
                        </Array>
                    </mxGeometry>
                </mxCell>
                <mxCell id="710" style="edgeStyle=none;html=1;exitX=0;exitY=0.5;exitDx=0;exitDy=0;endArrow=none;endFill=0;" parent="1" source="711" edge="1">
                    <mxGeometry relative="1" as="geometry">
                        <mxPoint x="-180" y="280" as="targetPoint"/>
                        <Array as="points">
                            <mxPoint x="-180" y="414"/>
                        </Array>
                    </mxGeometry>
                </mxCell>
                <mxCell id="711" value="" style="pointerEvents=1;verticalLabelPosition=bottom;shadow=0;dashed=0;align=center;html=1;verticalAlign=top;shape=mxgraph.electrical.miscellaneous.batteryStack;rotation=90;flipV=0;flipH=1;" parent="1" vertex="1">
                    <mxGeometry x="-230" y="454" width="100" height="60" as="geometry"/>
                </mxCell>
                <mxCell id="712" value="5V +" style="text;strokeColor=none;align=center;fillColor=none;html=1;verticalAlign=middle;whiteSpace=wrap;rounded=0;" parent="1" vertex="1">
                    <mxGeometry x="-160" y="474" width="60" height="30" as="geometry"/>
                </mxCell>
                <mxCell id="713" value="220 Î©" style="text;strokeColor=none;align=center;fillColor=none;html=1;verticalAlign=middle;whiteSpace=wrap;rounded=0;labelBackgroundColor=none;" parent="1" vertex="1">
                    <mxGeometry x="-410" y="674" width="60" height="30" as="geometry"/>
                </mxCell>
                <mxCell id="714" value="Input B" style="text;strokeColor=none;align=center;fillColor=none;html=1;verticalAlign=middle;whiteSpace=wrap;rounded=0;labelBackgroundColor=none;" parent="1" vertex="1">
                    <mxGeometry x="-332.5" y="434" width="60" height="30" as="geometry"/>
                </mxCell>
                <mxCell id="715" value="sum" style="text;strokeColor=none;align=center;fillColor=none;html=1;verticalAlign=middle;whiteSpace=wrap;rounded=0;labelBackgroundColor=none;" parent="1" vertex="1">
                    <mxGeometry x="-500" y="684" width="60" height="30" as="geometry"/>
                </mxCell>
                <mxCell id="716" value="+" style="text;strokeColor=none;align=center;fillColor=none;html=1;verticalAlign=middle;whiteSpace=wrap;rounded=0;" parent="1" vertex="1">
                    <mxGeometry x="-170" y="424" width="60" height="30" as="geometry"/>
                </mxCell>
                <mxCell id="717" value="-" style="text;strokeColor=none;align=center;fillColor=none;html=1;verticalAlign=middle;whiteSpace=wrap;rounded=0;" parent="1" vertex="1">
                    <mxGeometry x="-180" y="524" width="60" height="30" as="geometry"/>
                </mxCell>
                <mxCell id="718" value="Input A" style="text;strokeColor=none;align=center;fillColor=none;html=1;verticalAlign=middle;whiteSpace=wrap;rounded=0;labelBackgroundColor=none;" parent="1" vertex="1">
                    <mxGeometry x="-310" y="304" width="60" height="30" as="geometry"/>
                </mxCell>
                <mxCell id="719" style="edgeStyle=none;html=1;endArrow=oval;endFill=1;rounded=0;startArrow=none;startFill=0;strokeColor=default;strokeWidth=1;endSize=6;jumpStyle=none;" parent="1" edge="1">
                    <mxGeometry relative="1" as="geometry">
                        <mxPoint x="-260.00000000000045" y="544" as="targetPoint"/>
                        <mxPoint x="-240.00000000000045" y="304" as="sourcePoint"/>
                        <Array as="points">
                            <mxPoint x="-240" y="544"/>
                            <mxPoint x="-260" y="544"/>
                        </Array>
                    </mxGeometry>
                </mxCell>
                <mxCell id="720" style="edgeStyle=none;rounded=0;html=1;exitX=1;exitY=0.88;exitDx=0;exitDy=0;startArrow=none;startFill=0;endArrow=none;endFill=0;" parent="1" source="725" edge="1">
                    <mxGeometry relative="1" as="geometry">
                        <mxPoint x="-240.00000000000045" y="304" as="targetPoint"/>
                    </mxGeometry>
                </mxCell>
                <mxCell id="721" style="edgeStyle=none;rounded=0;jumpStyle=none;html=1;exitX=1;exitY=0.12;exitDx=0;exitDy=0;strokeColor=default;strokeWidth=1;startArrow=none;startFill=0;endArrow=oval;endFill=1;endSize=6;" parent="1" source="725" edge="1">
                    <mxGeometry relative="1" as="geometry">
                        <mxPoint x="-180.00000000000045" y="284" as="targetPoint"/>
                    </mxGeometry>
                </mxCell>
                <mxCell id="722" style="edgeStyle=none;rounded=0;html=1;endArrow=none;endFill=0;startArrow=oval;startFill=1;" parent="1" edge="1">
                    <mxGeometry relative="1" as="geometry">
                        <mxPoint x="-555" y="414" as="targetPoint"/>
                        <Array as="points">
                            <mxPoint x="-380" y="374"/>
                            <mxPoint x="-555" y="374"/>
                        </Array>
                        <mxPoint x="-380.00000000000045" y="294" as="sourcePoint"/>
                    </mxGeometry>
                </mxCell>
                <mxCell id="723" style="edgeStyle=none;html=1;exitX=0;exitY=0.5;exitDx=0;exitDy=0;startArrow=none;startFill=0;endArrow=none;endFill=0;" parent="1" source="725" edge="1">
                    <mxGeometry relative="1" as="geometry">
                        <mxPoint x="-380.00000000000045" y="294" as="targetPoint"/>
                    </mxGeometry>
                </mxCell>
                <mxCell id="724" style="edgeStyle=none;rounded=0;html=1;exitX=0;exitY=0.5;exitDx=0;exitDy=0;startArrow=none;startFill=0;endArrow=none;endFill=0;fillColor=none;" parent="1" source="725" edge="1">
                    <mxGeometry relative="1" as="geometry">
                        <mxPoint x="-680" y="294" as="targetPoint"/>
                    </mxGeometry>
                </mxCell>
                <mxCell id="725" value="" style="shape=mxgraph.electrical.electro-mechanical.twoWaySwitch;aspect=fixed;elSwitchState=2;flipV=1;" parent="1" vertex="1">
                    <mxGeometry x="-355" y="281" width="75" height="26" as="geometry"/>
                </mxCell>
                <mxCell id="726" value="" style="edgeStyle=none;orthogonalLoop=1;jettySize=auto;html=1;rounded=0;strokeColor=default;strokeWidth=1;startArrow=none;startFill=0;endArrow=none;endFill=0;endSize=6;jumpStyle=none;" parent="1" edge="1">
                    <mxGeometry width="80" relative="1" as="geometry">
                        <mxPoint x="-260.00000000000045" y="444" as="sourcePoint"/>
                        <mxPoint x="-260.00000000000045" y="444" as="targetPoint"/>
                        <Array as="points"/>
                    </mxGeometry>
                </mxCell>
                <mxCell id="727" style="edgeStyle=none;html=1;exitX=0;exitY=0.75;exitDx=0;exitDy=0;exitPerimeter=0;endArrow=none;endFill=0;" parent="1" edge="1">
                    <mxGeometry relative="1" as="geometry">
                        <mxPoint x="-554.9375" y="404" as="targetPoint"/>
                        <mxPoint x="-555" y="454" as="sourcePoint"/>
                    </mxGeometry>
                </mxCell>
                <mxCell id="728" style="edgeStyle=none;rounded=0;html=1;exitX=1;exitY=0.5;exitDx=0;exitDy=0;exitPerimeter=0;entryX=0;entryY=0.25;entryDx=0;entryDy=0;entryPerimeter=0;startArrow=none;startFill=0;endArrow=none;endFill=0;" parent="1" source="729" target="743" edge="1">
                    <mxGeometry relative="1" as="geometry"/>
                </mxCell>
                <mxCell id="729" value="" style="verticalLabelPosition=bottom;shadow=0;dashed=0;align=center;html=1;verticalAlign=top;shape=mxgraph.electrical.logic_gates.logic_gate;operation=xor;rotation=90;" parent="1" vertex="1">
                    <mxGeometry x="-590" y="474" width="100" height="60" as="geometry"/>
                </mxCell>
                <mxCell id="730" value="" style="edgeStyle=none;orthogonalLoop=1;jettySize=auto;html=1;endArrow=none;endFill=0;" parent="1" target="733" edge="1">
                    <mxGeometry width="80" relative="1" as="geometry">
                        <mxPoint x="-660" y="524" as="sourcePoint"/>
                        <mxPoint x="-660" y="804" as="targetPoint"/>
                        <Array as="points"/>
                    </mxGeometry>
                </mxCell>
                <mxCell id="731" style="edgeStyle=none;html=1;exitX=0;exitY=0.25;exitDx=0;exitDy=0;exitPerimeter=0;entryX=0;entryY=0.5;entryDx=0;entryDy=0;startArrow=none;startFill=0;endArrow=none;endFill=0;rounded=0;" parent="1" source="733" target="704" edge="1">
                    <mxGeometry relative="1" as="geometry">
                        <Array as="points">
                            <mxPoint x="-645" y="414"/>
                        </Array>
                    </mxGeometry>
                </mxCell>
                <mxCell id="732" style="edgeStyle=none;rounded=0;html=1;exitX=0;exitY=0.75;exitDx=0;exitDy=0;exitPerimeter=0;startArrow=none;startFill=0;endArrow=none;endFill=0;fillColor=none;strokeColor=default;" parent="1" source="733" edge="1">
                    <mxGeometry relative="1" as="geometry">
                        <mxPoint x="-680" y="294" as="targetPoint"/>
                    </mxGeometry>
                </mxCell>
                <mxCell id="733" value="" style="verticalLabelPosition=bottom;shadow=0;dashed=0;align=center;html=1;verticalAlign=top;shape=mxgraph.electrical.logic_gates.logic_gate;operation=and;rotation=90;" parent="1" vertex="1">
                    <mxGeometry x="-710" y="449" width="100" height="60" as="geometry"/>
                </mxCell>
                <mxCell id="734" value="" style="edgeStyle=none;html=1;exitX=0;exitY=0.57;exitDx=0;exitDy=0;exitPerimeter=0;endArrow=none;endFill=0;" parent="1" edge="1">
                    <mxGeometry relative="1" as="geometry">
                        <mxPoint x="-530" y="803.875" as="targetPoint"/>
                        <mxPoint x="-540" y="803.8999999999999" as="sourcePoint"/>
                    </mxGeometry>
                </mxCell>
                <mxCell id="735" style="edgeStyle=none;html=1;entryX=1;entryY=0.5;entryDx=0;entryDy=0;entryPerimeter=0;endArrow=none;endFill=0;exitX=0;exitY=0.25;exitDx=0;exitDy=0;exitPerimeter=0;rounded=0;" parent="1" source="736" target="733" edge="1">
                    <mxGeometry relative="1" as="geometry">
                        <mxPoint x="-660" y="784" as="sourcePoint"/>
                        <Array as="points">
                            <mxPoint x="-660" y="789"/>
                        </Array>
                    </mxGeometry>
                </mxCell>
                <mxCell id="756" style="edgeStyle=none;rounded=0;html=1;exitX=1;exitY=0.5;exitDx=0;exitDy=0;exitPerimeter=0;fontColor=#F0F0F0;endArrow=none;endFill=0;" parent="1" source="736" edge="1">
                    <mxGeometry relative="1" as="geometry">
                        <mxPoint x="-760" y="900" as="targetPoint"/>
                        <Array as="points">
                            <mxPoint x="-520" y="900"/>
                        </Array>
                    </mxGeometry>
                </mxCell>
                <mxCell id="736" value="" style="verticalLabelPosition=bottom;shadow=0;dashed=0;align=center;html=1;verticalAlign=top;shape=mxgraph.electrical.logic_gates.logic_gate;operation=or;" parent="1" vertex="1">
                    <mxGeometry x="-620" y="774" width="100" height="60" as="geometry"/>
                </mxCell>
                <mxCell id="737" style="edgeStyle=none;rounded=0;html=1;exitX=1;exitY=0.5;exitDx=0;exitDy=0;exitPerimeter=0;entryX=0;entryY=0.75;entryDx=0;entryDy=0;entryPerimeter=0;startArrow=none;startFill=0;endArrow=none;endFill=0;" parent="1" source="740" target="736" edge="1">
                    <mxGeometry relative="1" as="geometry">
                        <Array as="points">
                            <mxPoint x="-800" y="819"/>
                        </Array>
                    </mxGeometry>
                </mxCell>
                <mxCell id="738" style="edgeStyle=none;rounded=0;html=1;exitX=0;exitY=0.75;exitDx=0;exitDy=0;exitPerimeter=0;startArrow=none;startFill=0;endArrow=none;endFill=0;" parent="1" source="740" edge="1">
                    <mxGeometry relative="1" as="geometry">
                        <mxPoint x="-820" y="244" as="targetPoint"/>
                    </mxGeometry>
                </mxCell>
                <mxCell id="739" style="edgeStyle=none;rounded=0;html=1;exitX=0;exitY=0.25;exitDx=0;exitDy=0;exitPerimeter=0;startArrow=none;startFill=0;endArrow=oval;endFill=1;" parent="1" source="740" edge="1">
                    <mxGeometry relative="1" as="geometry">
                        <mxPoint x="-680" y="554" as="targetPoint"/>
                        <Array as="points">
                            <mxPoint x="-730" y="489"/>
                            <mxPoint x="-730" y="534"/>
                            <mxPoint x="-680" y="534"/>
                        </Array>
                    </mxGeometry>
                </mxCell>
                <mxCell id="740" value="" style="verticalLabelPosition=bottom;shadow=0;dashed=0;align=center;html=1;verticalAlign=top;shape=mxgraph.electrical.logic_gates.logic_gate;operation=and;rotation=90;" parent="1" vertex="1">
                    <mxGeometry x="-850" y="509" width="100" height="60" as="geometry"/>
                </mxCell>
                <mxCell id="741" style="edgeStyle=none;rounded=0;html=1;exitX=1;exitY=0.5;exitDx=0;exitDy=0;exitPerimeter=0;endArrow=none;endFill=0;" parent="1" source="743" edge="1">
                    <mxGeometry relative="1" as="geometry">
                        <mxPoint x="-540" y="653.9999999999998" as="targetPoint"/>
                    </mxGeometry>
                </mxCell>
                <mxCell id="742" style="edgeStyle=none;rounded=0;html=1;exitX=0;exitY=0.75;exitDx=0;exitDy=0;exitPerimeter=0;startArrow=none;startFill=0;endArrow=oval;endFill=1;" parent="1" source="743" edge="1">
                    <mxGeometry relative="1" as="geometry">
                        <mxPoint x="-820" y="314" as="targetPoint"/>
                        <Array as="points">
                            <mxPoint x="-750" y="314"/>
                        </Array>
                    </mxGeometry>
                </mxCell>
                <mxCell id="743" value="" style="verticalLabelPosition=bottom;shadow=0;dashed=0;align=center;html=1;verticalAlign=top;shape=mxgraph.electrical.logic_gates.logic_gate;operation=xor;rotation=90;" parent="1" vertex="1">
                    <mxGeometry x="-780" y="574" width="100" height="60" as="geometry"/>
                </mxCell>
                <mxCell id="746" style="edgeStyle=none;rounded=0;html=1;startArrow=none;startFill=0;endArrow=none;endFill=0;" parent="1" edge="1">
                    <mxGeometry relative="1" as="geometry">
                        <mxPoint x="-820" y="244" as="targetPoint"/>
                        <mxPoint x="-260" y="650" as="sourcePoint"/>
                        <Array as="points">
                            <mxPoint x="-260" y="240"/>
                        </Array>
                    </mxGeometry>
                </mxCell>
                <mxCell id="758" value="&lt;table style=&quot;border: none; color: rgb(240, 240, 240); font-style: normal; font-variant-ligatures: normal; font-variant-caps: normal; font-weight: 400; letter-spacing: normal; orphans: 2; text-align: center; text-transform: none; widows: 2; word-spacing: 0px; -webkit-text-stroke-width: 0px; background-color: rgb(42, 37, 47); text-decoration-thickness: initial; text-decoration-style: initial; text-decoration-color: initial; table-layout: fixed; font-size: 10pt; font-family: Arial; width: 0px; border-collapse: collapse;&quot; data-sheets-root=&quot;1&quot; border=&quot;1&quot; dir=&quot;ltr&quot; cellpadding=&quot;0&quot; cellspacing=&quot;0&quot; xmlns=&quot;http://www.w3.org/1999/xhtml&quot;&gt;&lt;colgroup style=&quot;border-color: rgb(0, 0, 0);&quot;&gt;&lt;col style=&quot;border-color: rgb(0, 0, 0);&quot; width=&quot;23&quot;&gt;&lt;col style=&quot;border-color: rgb(0, 0, 0);&quot; width=&quot;23&quot;&gt;&lt;col style=&quot;border-color: rgb(0, 0, 0);&quot; width=&quot;16&quot;&gt;&lt;col style=&quot;border-color: rgb(0, 0, 0);&quot; width=&quot;23&quot;&gt;&lt;col style=&quot;border-color: rgb(0, 0, 0);&quot; width=&quot;23&quot;&gt;&lt;col style=&quot;border-color: rgb(0, 0, 0);&quot; width=&quot;16&quot;&gt;&lt;col style=&quot;border-color: rgb(0, 0, 0);&quot; width=&quot;43&quot;&gt;&lt;col style=&quot;border-color: rgb(0, 0, 0);&quot; width=&quot;46&quot;&gt;&lt;col style=&quot;border-color: rgb(0, 0, 0);&quot; width=&quot;46&quot;&gt;&lt;/colgroup&gt;&lt;tbody style=&quot;border-color: rgb(0, 0, 0);&quot;&gt;&lt;tr style=&quot;border-color: rgb(0, 0, 0); height: 21px;&quot;&gt;&lt;td style=&quot;border: 1px solid rgb(204, 204, 204); overflow: hidden; padding: 2px 3px; vertical-align: bottom; font-size: 12pt; font-weight: bold; text-align: center;&quot; data-sheets-value=&quot;{&amp;quot;1&amp;quot;:2,&amp;quot;2&amp;quot;:&amp;quot;Aâ&amp;quot;}&quot;&gt;Aâ&lt;/td&gt;&lt;td style=&quot;border: 1px solid rgb(204, 204, 204); overflow: hidden; padding: 2px 3px; vertical-align: bottom; font-size: 12pt; font-weight: bold; text-align: center;&quot; data-sheets-value=&quot;{&amp;quot;1&amp;quot;:2,&amp;quot;2&amp;quot;:&amp;quot;Aâ&amp;quot;}&quot;&gt;Aâ&lt;/td&gt;&lt;td style=&quot;border: 1px solid rgb(204, 204, 204); overflow: hidden; padding: 2px 3px; vertical-align: bottom; font-size: 12pt; font-weight: bold; text-align: center;&quot; data-sheets-formula=&quot;=&amp;quot;+&amp;quot;&quot; data-sheets-value=&quot;{&amp;quot;1&amp;quot;:2,&amp;quot;2&amp;quot;:&amp;quot;+&amp;quot;}&quot;&gt;+&lt;/td&gt;&lt;td style=&quot;border: 1px solid rgb(204, 204, 204); overflow: hidden; padding: 2px 3px; vertical-align: bottom; font-size: 12pt; font-weight: bold; text-align: center;&quot; data-sheets-value=&quot;{&amp;quot;1&amp;quot;:2,&amp;quot;2&amp;quot;:&amp;quot;Bâ&amp;quot;}&quot;&gt;Bâ&lt;/td&gt;&lt;td style=&quot;border: 1px solid rgb(204, 204, 204); overflow: hidden; padding: 2px 3px; vertical-align: bottom; font-size: 12pt; font-weight: bold; text-align: center;&quot; data-sheets-value=&quot;{&amp;quot;1&amp;quot;:2,&amp;quot;2&amp;quot;:&amp;quot;Bâ&amp;quot;}&quot;&gt;Bâ&lt;/td&gt;&lt;td style=&quot;border: 1px solid rgb(204, 204, 204); overflow: hidden; padding: 2px 3px; vertical-align: bottom; background-color: rgb(0, 0, 0);&quot;&gt;&lt;/td&gt;&lt;td style=&quot;border: 1px solid rgb(204, 204, 204); overflow: hidden; padding: 2px 3px; vertical-align: bottom; font-size: 12pt; font-weight: bold; text-align: center;&quot; data-sheets-value=&quot;{&amp;quot;1&amp;quot;:2,&amp;quot;2&amp;quot;:&amp;quot;Cout&amp;quot;}&quot;&gt;Cout&lt;/td&gt;&lt;td style=&quot;border: 1px solid rgb(204, 204, 204); overflow: hidden; padding: 2px 3px; vertical-align: bottom; font-size: 12pt; font-weight: bold; text-align: center;&quot; data-sheets-value=&quot;{&amp;quot;1&amp;quot;:2,&amp;quot;2&amp;quot;:&amp;quot;Sumâ&amp;quot;}&quot;&gt;Sumâ&lt;/td&gt;&lt;td style=&quot;border: 1px solid rgb(204, 204, 204); overflow: hidden; padding: 2px 3px; vertical-align: bottom; font-size: 12pt; font-weight: bold; text-align: center;&quot; data-sheets-value=&quot;{&amp;quot;1&amp;quot;:2,&amp;quot;2&amp;quot;:&amp;quot;Sumâ&amp;quot;}&quot;&gt;Sumâ&lt;/td&gt;&lt;/tr&gt;&lt;tr style=&quot;border-color: rgb(0, 0, 0); height: 21px;&quot;&gt;&lt;td style=&quot;border: 1px solid rgb(204, 204, 204); overflow: hidden; padding: 2px 3px; vertical-align: bottom; text-align: center;&quot; data-sheets-value=&quot;{&amp;quot;1&amp;quot;:3,&amp;quot;3&amp;quot;:0}&quot;&gt;0&lt;/td&gt;&lt;td style=&quot;border: 1px solid rgb(204, 204, 204); overflow: hidden; padding: 2px 3px; vertical-align: bottom; text-align: center;&quot; data-sheets-value=&quot;{&amp;quot;1&amp;quot;:3,&amp;quot;3&amp;quot;:0}&quot;&gt;0&lt;/td&gt;&lt;td style=&quot;border: 1px solid rgb(204, 204, 204); overflow: hidden; padding: 2px 3px; vertical-align: bottom; text-align: center;&quot; data-sheets-formula=&quot;=&amp;quot;+&amp;quot;&quot; data-sheets-value=&quot;{&amp;quot;1&amp;quot;:2,&amp;quot;2&amp;quot;:&amp;quot;+&amp;quot;}&quot;&gt;+&lt;/td&gt;&lt;td style=&quot;border: 1px solid rgb(204, 204, 204); overflow: hidden; padding: 2px 3px; vertical-align: bottom; text-align: center;&quot; data-sheets-value=&quot;{&amp;quot;1&amp;quot;:3,&amp;quot;3&amp;quot;:0}&quot;&gt;0&lt;/td&gt;&lt;td style=&quot;border: 1px solid rgb(204, 204, 204); overflow: hidden; padding: 2px 3px; vertical-align: bottom; text-align: center;&quot; data-sheets-value=&quot;{&amp;quot;1&amp;quot;:3,&amp;quot;3&amp;quot;:0}&quot;&gt;0&lt;/td&gt;&lt;td style=&quot;border: 1px solid rgb(204, 204, 204); overflow: hidden; padding: 2px 3px; vertical-align: bottom; background-color: rgb(0, 0, 0);&quot;&gt;&lt;/td&gt;&lt;td style=&quot;border: 1px solid rgb(204, 204, 204); overflow: hidden; padding: 2px 3px; vertical-align: bottom; text-align: center;&quot; data-sheets-value=&quot;{&amp;quot;1&amp;quot;:3,&amp;quot;3&amp;quot;:0}&quot;&gt;0&lt;/td&gt;&lt;td style=&quot;border: 1px solid rgb(204, 204, 204); overflow: hidden; padding: 2px 3px; vertical-align: bottom; text-align: center;&quot; data-sheets-value=&quot;{&amp;quot;1&amp;quot;:3,&amp;quot;3&amp;quot;:0}&quot;&gt;0&lt;/td&gt;&lt;td style=&quot;border: 1px solid rgb(204, 204, 204); overflow: hidden; padding: 2px 3px; vertical-align: bottom; text-align: center;&quot; data-sheets-value=&quot;{&amp;quot;1&amp;quot;:3,&amp;quot;3&amp;quot;:0}&quot;&gt;0&lt;/td&gt;&lt;/tr&gt;&lt;tr style=&quot;border-color: rgb(0, 0, 0); height: 21px;&quot;&gt;&lt;td style=&quot;border: 1px solid rgb(204, 204, 204); overflow: hidden; padding: 2px 3px; vertical-align: bottom; text-align: center;&quot; data-sheets-value=&quot;{&amp;quot;1&amp;quot;:3,&amp;quot;3&amp;quot;:0}&quot;&gt;0&lt;/td&gt;&lt;td style=&quot;border: 1px solid rgb(204, 204, 204); overflow: hidden; padding: 2px 3px; vertical-align: bottom; text-align: center;&quot; data-sheets-value=&quot;{&amp;quot;1&amp;quot;:3,&amp;quot;3&amp;quot;:0}&quot;&gt;0&lt;/td&gt;&lt;td style=&quot;border: 1px solid rgb(204, 204, 204); overflow: hidden; padding: 2px 3px; vertical-align: bottom; text-align: center;&quot; data-sheets-formula=&quot;=&amp;quot;+&amp;quot;&quot; data-sheets-value=&quot;{&amp;quot;1&amp;quot;:2,&amp;quot;2&amp;quot;:&amp;quot;+&amp;quot;}&quot;&gt;+&lt;/td&gt;&lt;td style=&quot;border: 1px solid rgb(204, 204, 204); overflow: hidden; padding: 2px 3px; vertical-align: bottom; text-align: center;&quot; data-sheets-value=&quot;{&amp;quot;1&amp;quot;:3,&amp;quot;3&amp;quot;:0}&quot;&gt;0&lt;/td&gt;&lt;td style=&quot;border: 1px solid rgb(204, 204, 204); overflow: hidden; padding: 2px 3px; vertical-align: bottom; text-align: center;&quot; data-sheets-value=&quot;{&amp;quot;1&amp;quot;:3,&amp;quot;3&amp;quot;:1}&quot;&gt;1&lt;/td&gt;&lt;td style=&quot;border: 1px solid rgb(204, 204, 204); overflow: hidden; padding: 2px 3px; vertical-align: bottom; background-color: rgb(0, 0, 0);&quot;&gt;&lt;/td&gt;&lt;td style=&quot;border: 1px solid rgb(204, 204, 204); overflow: hidden; padding: 2px 3px; vertical-align: bottom; text-align: center;&quot; data-sheets-value=&quot;{&amp;quot;1&amp;quot;:3,&amp;quot;3&amp;quot;:0}&quot;&gt;0&lt;/td&gt;&lt;td style=&quot;border: 1px solid rgb(204, 204, 204); overflow: hidden; padding: 2px 3px; vertical-align: bottom; text-align: center;&quot; data-sheets-value=&quot;{&amp;quot;1&amp;quot;:3,&amp;quot;3&amp;quot;:0}&quot;&gt;0&lt;/td&gt;&lt;td style=&quot;border: 1px solid rgb(204, 204, 204); overflow: hidden; padding: 2px 3px; vertical-align: bottom; text-align: center;&quot; data-sheets-value=&quot;{&amp;quot;1&amp;quot;:3,&amp;quot;3&amp;quot;:1}&quot;&gt;1&lt;/td&gt;&lt;/tr&gt;&lt;tr style=&quot;border-color: rgb(0, 0, 0); height: 21px;&quot;&gt;&lt;td style=&quot;border: 1px solid rgb(204, 204, 204); overflow: hidden; padding: 2px 3px; vertical-align: bottom; text-align: center;&quot; data-sheets-value=&quot;{&amp;quot;1&amp;quot;:3,&amp;quot;3&amp;quot;:0}&quot;&gt;0&lt;/td&gt;&lt;td style=&quot;border: 1px solid rgb(204, 204, 204); overflow: hidden; padding: 2px 3px; vertical-align: bottom; text-align: center;&quot; data-sheets-value=&quot;{&amp;quot;1&amp;quot;:3,&amp;quot;3&amp;quot;:0}&quot;&gt;0&lt;/td&gt;&lt;td style=&quot;border: 1px solid rgb(204, 204, 204); overflow: hidden; padding: 2px 3px; vertical-align: bottom; text-align: center;&quot; data-sheets-formula=&quot;=&amp;quot;+&amp;quot;&quot; data-sheets-value=&quot;{&amp;quot;1&amp;quot;:2,&amp;quot;2&amp;quot;:&amp;quot;+&amp;quot;}&quot;&gt;+&lt;/td&gt;&lt;td style=&quot;border: 1px solid rgb(204, 204, 204); overflow: hidden; padding: 2px 3px; vertical-align: bottom; text-align: center;&quot; data-sheets-value=&quot;{&amp;quot;1&amp;quot;:3,&amp;quot;3&amp;quot;:1}&quot;&gt;1&lt;/td&gt;&lt;td style=&quot;border: 1px solid rgb(204, 204, 204); overflow: hidden; padding: 2px 3px; vertical-align: bottom; text-align: center;&quot; data-sheets-value=&quot;{&amp;quot;1&amp;quot;:3,&amp;quot;3&amp;quot;:0}&quot;&gt;0&lt;/td&gt;&lt;td style=&quot;border: 1px solid rgb(204, 204, 204); overflow: hidden; padding: 2px 3px; vertical-align: bottom; background-color: rgb(0, 0, 0);&quot;&gt;&lt;/td&gt;&lt;td style=&quot;border: 1px solid rgb(204, 204, 204); overflow: hidden; padding: 2px 3px; vertical-align: bottom; text-align: center;&quot; data-sheets-value=&quot;{&amp;quot;1&amp;quot;:3,&amp;quot;3&amp;quot;:0}&quot;&gt;0&lt;/td&gt;&lt;td style=&quot;border: 1px solid rgb(204, 204, 204); overflow: hidden; padding: 2px 3px; vertical-align: bottom; text-align: center;&quot; data-sheets-value=&quot;{&amp;quot;1&amp;quot;:3,&amp;quot;3&amp;quot;:1}&quot;&gt;1&lt;/td&gt;&lt;td style=&quot;border: 1px solid rgb(204, 204, 204); overflow: hidden; padding: 2px 3px; vertical-align: bottom; text-align: center;&quot; data-sheets-value=&quot;{&amp;quot;1&amp;quot;:3,&amp;quot;3&amp;quot;:0}&quot;&gt;0&lt;/td&gt;&lt;/tr&gt;&lt;tr style=&quot;border-color: rgb(0, 0, 0); height: 21px;&quot;&gt;&lt;td style=&quot;border: 1px solid rgb(204, 204, 204); overflow: hidden; padding: 2px 3px; vertical-align: bottom; text-align: center;&quot; data-sheets-value=&quot;{&amp;quot;1&amp;quot;:3,&amp;quot;3&amp;quot;:0}&quot;&gt;0&lt;/td&gt;&lt;td style=&quot;border: 1px solid rgb(204, 204, 204); overflow: hidden; padding: 2px 3px; vertical-align: bottom; text-align: center;&quot; data-sheets-value=&quot;{&amp;quot;1&amp;quot;:3,&amp;quot;3&amp;quot;:0}&quot;&gt;0&lt;/td&gt;&lt;td style=&quot;border: 1px solid rgb(204, 204, 204); overflow: hidden; padding: 2px 3px; vertical-align: bottom; text-align: center;&quot; data-sheets-formula=&quot;=&amp;quot;+&amp;quot;&quot; data-sheets-value=&quot;{&amp;quot;1&amp;quot;:2,&amp;quot;2&amp;quot;:&amp;quot;+&amp;quot;}&quot;&gt;+&lt;/td&gt;&lt;td style=&quot;border: 1px solid rgb(204, 204, 204); overflow: hidden; padding: 2px 3px; vertical-align: bottom; text-align: center;&quot; data-sheets-value=&quot;{&amp;quot;1&amp;quot;:3,&amp;quot;3&amp;quot;:1}&quot;&gt;1&lt;/td&gt;&lt;td style=&quot;border: 1px solid rgb(204, 204, 204); overflow: hidden; padding: 2px 3px; vertical-align: bottom; text-align: center;&quot; data-sheets-value=&quot;{&amp;quot;1&amp;quot;:3,&amp;quot;3&amp;quot;:1}&quot;&gt;1&lt;/td&gt;&lt;td style=&quot;border: 1px solid rgb(204, 204, 204); overflow: hidden; padding: 2px 3px; vertical-align: bottom; background-color: rgb(0, 0, 0);&quot;&gt;&lt;/td&gt;&lt;td style=&quot;border: 1px solid rgb(204, 204, 204); overflow: hidden; padding: 2px 3px; vertical-align: bottom; text-align: center;&quot; data-sheets-value=&quot;{&amp;quot;1&amp;quot;:3,&amp;quot;3&amp;quot;:0}&quot;&gt;0&lt;/td&gt;&lt;td style=&quot;border: 1px solid rgb(204, 204, 204); overflow: hidden; padding: 2px 3px; vertical-align: bottom; text-align: center;&quot; data-sheets-value=&quot;{&amp;quot;1&amp;quot;:3,&amp;quot;3&amp;quot;:1}&quot;&gt;1&lt;/td&gt;&lt;td style=&quot;border: 1px solid rgb(204, 204, 204); overflow: hidden; padding: 2px 3px; vertical-align: bottom; text-align: center;&quot; data-sheets-value=&quot;{&amp;quot;1&amp;quot;:3,&amp;quot;3&amp;quot;:1}&quot;&gt;1&lt;/td&gt;&lt;/tr&gt;&lt;tr style=&quot;border-color: rgb(0, 0, 0); height: 21px;&quot;&gt;&lt;td style=&quot;border: 1px solid rgb(204, 204, 204); overflow: hidden; padding: 2px 3px; vertical-align: bottom; text-align: center;&quot; data-sheets-value=&quot;{&amp;quot;1&amp;quot;:3,&amp;quot;3&amp;quot;:0}&quot;&gt;0&lt;/td&gt;&lt;td style=&quot;border: 1px solid rgb(204, 204, 204); overflow: hidden; padding: 2px 3px; vertical-align: bottom; text-align: center;&quot; data-sheets-value=&quot;{&amp;quot;1&amp;quot;:3,&amp;quot;3&amp;quot;:1}&quot;&gt;1&lt;/td&gt;&lt;td style=&quot;border: 1px solid rgb(204, 204, 204); overflow: hidden; padding: 2px 3px; vertical-align: bottom; text-align: center;&quot; data-sheets-formula=&quot;=&amp;quot;+&amp;quot;&quot; data-sheets-value=&quot;{&amp;quot;1&amp;quot;:2,&amp;quot;2&amp;quot;:&amp;quot;+&amp;quot;}&quot;&gt;+&lt;/td&gt;&lt;td style=&quot;border: 1px solid rgb(204, 204, 204); overflow: hidden; padding: 2px 3px; vertical-align: bottom; text-align: center;&quot; data-sheets-value=&quot;{&amp;quot;1&amp;quot;:3,&amp;quot;3&amp;quot;:0}&quot;&gt;0&lt;/td&gt;&lt;td style=&quot;border: 1px solid rgb(204, 204, 204); overflow: hidden; padding: 2px 3px; vertical-align: bottom; text-align: center;&quot; data-sheets-value=&quot;{&amp;quot;1&amp;quot;:3,&amp;quot;3&amp;quot;:0}&quot;&gt;0&lt;/td&gt;&lt;td style=&quot;border: 1px solid rgb(204, 204, 204); overflow: hidden; padding: 2px 3px; vertical-align: bottom; background-color: rgb(0, 0, 0);&quot;&gt;&lt;/td&gt;&lt;td style=&quot;border: 1px solid rgb(204, 204, 204); overflow: hidden; padding: 2px 3px; vertical-align: bottom; text-align: center;&quot; data-sheets-value=&quot;{&amp;quot;1&amp;quot;:3,&amp;quot;3&amp;quot;:0}&quot;&gt;0&lt;/td&gt;&lt;td style=&quot;border: 1px solid rgb(204, 204, 204); overflow: hidden; padding: 2px 3px; vertical-align: bottom; text-align: center;&quot; data-sheets-value=&quot;{&amp;quot;1&amp;quot;:3,&amp;quot;3&amp;quot;:0}&quot;&gt;0&lt;/td&gt;&lt;td style=&quot;border: 1px solid rgb(204, 204, 204); overflow: hidden; padding: 2px 3px; vertical-align: bottom; text-align: center;&quot; data-sheets-value=&quot;{&amp;quot;1&amp;quot;:3,&amp;quot;3&amp;quot;:1}&quot;&gt;1&lt;/td&gt;&lt;/tr&gt;&lt;tr style=&quot;border-color: rgb(0, 0, 0); height: 21px;&quot;&gt;&lt;td style=&quot;border: 1px solid rgb(204, 204, 204); overflow: hidden; padding: 2px 3px; vertical-align: bottom; text-align: center;&quot; data-sheets-value=&quot;{&amp;quot;1&amp;quot;:3,&amp;quot;3&amp;quot;:0}&quot;&gt;0&lt;/td&gt;&lt;td style=&quot;border: 1px solid rgb(204, 204, 204); overflow: hidden; padding: 2px 3px; vertical-align: bottom; text-align: center;&quot; data-sheets-value=&quot;{&amp;quot;1&amp;quot;:3,&amp;quot;3&amp;quot;:1}&quot;&gt;1&lt;/td&gt;&lt;td style=&quot;border: 1px solid rgb(204, 204, 204); overflow: hidden; padding: 2px 3px; vertical-align: bottom; text-align: center;&quot; data-sheets-formula=&quot;=&amp;quot;+&amp;quot;&quot; data-sheets-value=&quot;{&amp;quot;1&amp;quot;:2,&amp;quot;2&amp;quot;:&amp;quot;+&amp;quot;}&quot;&gt;+&lt;/td&gt;&lt;td style=&quot;border: 1px solid rgb(204, 204, 204); overflow: hidden; padding: 2px 3px; vertical-align: bottom; text-align: center;&quot; data-sheets-value=&quot;{&amp;quot;1&amp;quot;:3,&amp;quot;3&amp;quot;:0}&quot;&gt;0&lt;/td&gt;&lt;td style=&quot;border: 1px solid rgb(204, 204, 204); overflow: hidden; padding: 2px 3px; vertical-align: bottom; text-align: center;&quot; data-sheets-value=&quot;{&amp;quot;1&amp;quot;:3,&amp;quot;3&amp;quot;:1}&quot;&gt;1&lt;/td&gt;&lt;td style=&quot;border: 1px solid rgb(204, 204, 204); overflow: hidden; padding: 2px 3px; vertical-align: bottom; background-color: rgb(0, 0, 0);&quot;&gt;&lt;/td&gt;&lt;td style=&quot;border: 1px solid rgb(204, 204, 204); overflow: hidden; padding: 2px 3px; vertical-align: bottom; text-align: center;&quot; data-sheets-value=&quot;{&amp;quot;1&amp;quot;:3,&amp;quot;3&amp;quot;:0}&quot;&gt;0&lt;/td&gt;&lt;td style=&quot;border: 1px solid rgb(204, 204, 204); overflow: hidden; padding: 2px 3px; vertical-align: bottom; text-align: center;&quot; data-sheets-value=&quot;{&amp;quot;1&amp;quot;:3,&amp;quot;3&amp;quot;:1}&quot;&gt;1&lt;/td&gt;&lt;td style=&quot;border: 1px solid rgb(204, 204, 204); overflow: hidden; padding: 2px 3px; vertical-align: bottom; text-align: center;&quot; data-sheets-value=&quot;{&amp;quot;1&amp;quot;:3,&amp;quot;3&amp;quot;:0}&quot;&gt;0&lt;/td&gt;&lt;/tr&gt;&lt;tr style=&quot;border-color: rgb(0, 0, 0); height: 21px;&quot;&gt;&lt;td style=&quot;border: 1px solid rgb(204, 204, 204); overflow: hidden; padding: 2px 3px; vertical-align: bottom; text-align: center;&quot; data-sheets-value=&quot;{&amp;quot;1&amp;quot;:3,&amp;quot;3&amp;quot;:0}&quot;&gt;0&lt;/td&gt;&lt;td style=&quot;border: 1px solid rgb(204, 204, 204); overflow: hidden; padding: 2px 3px; vertical-align: bottom; text-align: center;&quot; data-sheets-value=&quot;{&amp;quot;1&amp;quot;:3,&amp;quot;3&amp;quot;:1}&quot;&gt;1&lt;/td&gt;&lt;td style=&quot;border: 1px solid rgb(204, 204, 204); overflow: hidden; padding: 2px 3px; vertical-align: bottom; text-align: center;&quot; data-sheets-formula=&quot;=&amp;quot;+&amp;quot;&quot; data-sheets-value=&quot;{&amp;quot;1&amp;quot;:2,&amp;quot;2&amp;quot;:&amp;quot;+&amp;quot;}&quot;&gt;+&lt;/td&gt;&lt;td style=&quot;border: 1px solid rgb(204, 204, 204); overflow: hidden; padding: 2px 3px; vertical-align: bottom; text-align: center;&quot; data-sheets-value=&quot;{&amp;quot;1&amp;quot;:3,&amp;quot;3&amp;quot;:1}&quot;&gt;1&lt;/td&gt;&lt;td style=&quot;border: 1px solid rgb(204, 204, 204); overflow: hidden; padding: 2px 3px; vertical-align: bottom; text-align: center;&quot; data-sheets-value=&quot;{&amp;quot;1&amp;quot;:3,&amp;quot;3&amp;quot;:0}&quot;&gt;0&lt;/td&gt;&lt;td style=&quot;border: 1px solid rgb(204, 204, 204); overflow: hidden; padding: 2px 3px; vertical-align: bottom; background-color: rgb(0, 0, 0);&quot;&gt;&lt;/td&gt;&lt;td style=&quot;border: 1px solid rgb(204, 204, 204); overflow: hidden; padding: 2px 3px; vertical-align: bottom; text-align: center;&quot; data-sheets-value=&quot;{&amp;quot;1&amp;quot;:3,&amp;quot;3&amp;quot;:0}&quot;&gt;0&lt;/td&gt;&lt;td style=&quot;border: 1px solid rgb(204, 204, 204); overflow: hidden; padding: 2px 3px; vertical-align: bottom; text-align: center;&quot; data-sheets-value=&quot;{&amp;quot;1&amp;quot;:3,&amp;quot;3&amp;quot;:1}&quot;&gt;1&lt;/td&gt;&lt;td style=&quot;border: 1px solid rgb(204, 204, 204); overflow: hidden; padding: 2px 3px; vertical-align: bottom; text-align: center;&quot; data-sheets-value=&quot;{&amp;quot;1&amp;quot;:3,&amp;quot;3&amp;quot;:1}&quot;&gt;1&lt;/td&gt;&lt;/tr&gt;&lt;tr style=&quot;border-color: rgb(0, 0, 0); height: 21px;&quot;&gt;&lt;td style=&quot;border: 1px solid rgb(204, 204, 204); overflow: hidden; padding: 2px 3px; vertical-align: bottom; text-align: center;&quot; data-sheets-value=&quot;{&amp;quot;1&amp;quot;:3,&amp;quot;3&amp;quot;:0}&quot;&gt;0&lt;/td&gt;&lt;td style=&quot;border: 1px solid rgb(204, 204, 204); overflow: hidden; padding: 2px 3px; vertical-align: bottom; text-align: center;&quot; data-sheets-value=&quot;{&amp;quot;1&amp;quot;:3,&amp;quot;3&amp;quot;:1}&quot;&gt;1&lt;/td&gt;&lt;td style=&quot;border: 1px solid rgb(204, 204, 204); overflow: hidden; padding: 2px 3px; vertical-align: bottom; text-align: center;&quot; data-sheets-formula=&quot;=&amp;quot;+&amp;quot;&quot; data-sheets-value=&quot;{&amp;quot;1&amp;quot;:2,&amp;quot;2&amp;quot;:&amp;quot;+&amp;quot;}&quot;&gt;+&lt;/td&gt;&lt;td style=&quot;border: 1px solid rgb(204, 204, 204); overflow: hidden; padding: 2px 3px; vertical-align: bottom; text-align: center;&quot; data-sheets-value=&quot;{&amp;quot;1&amp;quot;:3,&amp;quot;3&amp;quot;:1}&quot;&gt;1&lt;/td&gt;&lt;td style=&quot;border: 1px solid rgb(204, 204, 204); overflow: hidden; padding: 2px 3px; vertical-align: bottom; text-align: center;&quot; data-sheets-value=&quot;{&amp;quot;1&amp;quot;:3,&amp;quot;3&amp;quot;:1}&quot;&gt;1&lt;/td&gt;&lt;td style=&quot;border: 1px solid rgb(204, 204, 204); overflow: hidden; padding: 2px 3px; vertical-align: bottom; background-color: rgb(0, 0, 0);&quot;&gt;&lt;/td&gt;&lt;td style=&quot;border: 1px solid rgb(204, 204, 204); overflow: hidden; padding: 2px 3px; vertical-align: bottom; text-align: center;&quot; data-sheets-value=&quot;{&amp;quot;1&amp;quot;:3,&amp;quot;3&amp;quot;:1}&quot;&gt;1&lt;/td&gt;&lt;td style=&quot;border: 1px solid rgb(204, 204, 204); overflow: hidden; padding: 2px 3px; vertical-align: bottom; text-align: center;&quot; data-sheets-value=&quot;{&amp;quot;1&amp;quot;:3,&amp;quot;3&amp;quot;:0}&quot;&gt;0&lt;/td&gt;&lt;td style=&quot;border: 1px solid rgb(204, 204, 204); overflow: hidden; padding: 2px 3px; vertical-align: bottom; text-align: center;&quot; data-sheets-value=&quot;{&amp;quot;1&amp;quot;:3,&amp;quot;3&amp;quot;:0}&quot;&gt;0&lt;/td&gt;&lt;/tr&gt;&lt;tr style=&quot;border-color: rgb(0, 0, 0); height: 21px;&quot;&gt;&lt;td style=&quot;border: 1px solid rgb(204, 204, 204); overflow: hidden; padding: 2px 3px; vertical-align: bottom; text-align: center;&quot; data-sheets-value=&quot;{&amp;quot;1&amp;quot;:3,&amp;quot;3&amp;quot;:1}&quot;&gt;1&lt;/td&gt;&lt;td style=&quot;border: 1px solid rgb(204, 204, 204); overflow: hidden; padding: 2px 3px; vertical-align: bottom; text-align: center;&quot; data-sheets-value=&quot;{&amp;quot;1&amp;quot;:3,&amp;quot;3&amp;quot;:0}&quot;&gt;0&lt;/td&gt;&lt;td style=&quot;border: 1px solid rgb(204, 204, 204); overflow: hidden; padding: 2px 3px; vertical-align: bottom; text-align: center;&quot; data-sheets-formula=&quot;=&amp;quot;+&amp;quot;&quot; data-sheets-value=&quot;{&amp;quot;1&amp;quot;:2,&amp;quot;2&amp;quot;:&amp;quot;+&amp;quot;}&quot;&gt;+&lt;/td&gt;&lt;td style=&quot;border: 1px solid rgb(204, 204, 204); overflow: hidden; padding: 2px 3px; vertical-align: bottom; text-align: center;&quot; data-sheets-value=&quot;{&amp;quot;1&amp;quot;:3,&amp;quot;3&amp;quot;:0}&quot;&gt;0&lt;/td&gt;&lt;td style=&quot;border: 1px solid rgb(204, 204, 204); overflow: hidden; padding: 2px 3px; vertical-align: bottom; text-align: center;&quot; data-sheets-value=&quot;{&amp;quot;1&amp;quot;:3,&amp;quot;3&amp;quot;:0}&quot;&gt;0&lt;/td&gt;&lt;td style=&quot;border: 1px solid rgb(204, 204, 204); overflow: hidden; padding: 2px 3px; vertical-align: bottom; background-color: rgb(0, 0, 0);&quot;&gt;&lt;/td&gt;&lt;td style=&quot;border: 1px solid rgb(204, 204, 204); overflow: hidden; padding: 2px 3px; vertical-align: bottom; text-align: center;&quot; data-sheets-value=&quot;{&amp;quot;1&amp;quot;:3,&amp;quot;3&amp;quot;:0}&quot;&gt;0&lt;/td&gt;&lt;td style=&quot;border: 1px solid rgb(204, 204, 204); overflow: hidden; padding: 2px 3px; vertical-align: bottom; text-align: center;&quot; data-sheets-value=&quot;{&amp;quot;1&amp;quot;:3,&amp;quot;3&amp;quot;:1}&quot;&gt;1&lt;/td&gt;&lt;td style=&quot;border: 1px solid rgb(204, 204, 204); overflow: hidden; padding: 2px 3px; vertical-align: bottom; text-align: center;&quot; data-sheets-value=&quot;{&amp;quot;1&amp;quot;:3,&amp;quot;3&amp;quot;:0}&quot;&gt;0&lt;/td&gt;&lt;/tr&gt;&lt;tr style=&quot;border-color: rgb(0, 0, 0); height: 21px;&quot;&gt;&lt;td style=&quot;border: 1px solid rgb(204, 204, 204); overflow: hidden; padding: 2px 3px; vertical-align: bottom; text-align: center;&quot; data-sheets-value=&quot;{&amp;quot;1&amp;quot;:3,&amp;quot;3&amp;quot;:1}&quot;&gt;1&lt;/td&gt;&lt;td style=&quot;border: 1px solid rgb(204, 204, 204); overflow: hidden; padding: 2px 3px; vertical-align: bottom; text-align: center;&quot; data-sheets-value=&quot;{&amp;quot;1&amp;quot;:3,&amp;quot;3&amp;quot;:0}&quot;&gt;0&lt;/td&gt;&lt;td style=&quot;border: 1px solid rgb(204, 204, 204); overflow: hidden; padding: 2px 3px; vertical-align: bottom; text-align: center;&quot; data-sheets-formula=&quot;=&amp;quot;+&amp;quot;&quot; data-sheets-value=&quot;{&amp;quot;1&amp;quot;:2,&amp;quot;2&amp;quot;:&amp;quot;+&amp;quot;}&quot;&gt;+&lt;/td&gt;&lt;td style=&quot;border: 1px solid rgb(204, 204, 204); overflow: hidden; padding: 2px 3px; vertical-align: bottom; text-align: center;&quot; data-sheets-value=&quot;{&amp;quot;1&amp;quot;:3,&amp;quot;3&amp;quot;:0}&quot;&gt;0&lt;/td&gt;&lt;td style=&quot;border: 1px solid rgb(204, 204, 204); overflow: hidden; padding: 2px 3px; vertical-align: bottom; text-align: center;&quot; data-sheets-value=&quot;{&amp;quot;1&amp;quot;:3,&amp;quot;3&amp;quot;:1}&quot;&gt;1&lt;/td&gt;&lt;td style=&quot;border: 1px solid rgb(204, 204, 204); overflow: hidden; padding: 2px 3px; vertical-align: bottom; background-color: rgb(0, 0, 0);&quot;&gt;&lt;/td&gt;&lt;td style=&quot;border: 1px solid rgb(204, 204, 204); overflow: hidden; padding: 2px 3px; vertical-align: bottom; text-align: center;&quot; data-sheets-value=&quot;{&amp;quot;1&amp;quot;:3,&amp;quot;3&amp;quot;:0}&quot;&gt;0&lt;/td&gt;&lt;td style=&quot;border: 1px solid rgb(204, 204, 204); overflow: hidden; padding: 2px 3px; vertical-align: bottom; text-align: center;&quot; data-sheets-value=&quot;{&amp;quot;1&amp;quot;:3,&amp;quot;3&amp;quot;:1}&quot;&gt;1&lt;/td&gt;&lt;td style=&quot;border: 1px solid rgb(204, 204, 204); overflow: hidden; padding: 2px 3px; vertical-align: bottom; text-align: center;&quot; data-sheets-value=&quot;{&amp;quot;1&amp;quot;:3,&amp;quot;3&amp;quot;:1}&quot;&gt;1&lt;/td&gt;&lt;/tr&gt;&lt;tr style=&quot;border-color: rgb(0, 0, 0); height: 21px;&quot;&gt;&lt;td style=&quot;border: 1px solid rgb(204, 204, 204); overflow: hidden; padding: 2px 3px; vertical-align: bottom; text-align: center;&quot; data-sheets-value=&quot;{&amp;quot;1&amp;quot;:3,&amp;quot;3&amp;quot;:1}&quot;&gt;1&lt;/td&gt;&lt;td style=&quot;border: 1px solid rgb(204, 204, 204); overflow: hidden; padding: 2px 3px; vertical-align: bottom; text-align: center;&quot; data-sheets-value=&quot;{&amp;quot;1&amp;quot;:3,&amp;quot;3&amp;quot;:0}&quot;&gt;0&lt;/td&gt;&lt;td style=&quot;border: 1px solid rgb(204, 204, 204); overflow: hidden; padding: 2px 3px; vertical-align: bottom; text-align: center;&quot; data-sheets-formula=&quot;=&amp;quot;+&amp;quot;&quot; data-sheets-value=&quot;{&amp;quot;1&amp;quot;:2,&amp;quot;2&amp;quot;:&amp;quot;+&amp;quot;}&quot;&gt;+&lt;/td&gt;&lt;td style=&quot;border: 1px solid rgb(204, 204, 204); overflow: hidden; padding: 2px 3px; vertical-align: bottom; text-align: center;&quot; data-sheets-value=&quot;{&amp;quot;1&amp;quot;:3,&amp;quot;3&amp;quot;:1}&quot;&gt;1&lt;/td&gt;&lt;td style=&quot;border: 1px solid rgb(204, 204, 204); overflow: hidden; padding: 2px 3px; vertical-align: bottom; text-align: center;&quot; data-sheets-value=&quot;{&amp;quot;1&amp;quot;:3,&amp;quot;3&amp;quot;:0}&quot;&gt;0&lt;/td&gt;&lt;td style=&quot;border: 1px solid rgb(204, 204, 204); overflow: hidden; padding: 2px 3px; vertical-align: bottom; background-color: rgb(0, 0, 0);&quot;&gt;&lt;/td&gt;&lt;td style=&quot;border: 1px solid rgb(204, 204, 204); overflow: hidden; padding: 2px 3px; vertical-align: bottom; text-align: center;&quot; data-sheets-value=&quot;{&amp;quot;1&amp;quot;:3,&amp;quot;3&amp;quot;:1}&quot;&gt;1&lt;/td&gt;&lt;td style=&quot;border: 1px solid rgb(204, 204, 204); overflow: hidden; padding: 2px 3px; vertical-align: bottom; text-align: center;&quot; data-sheets-value=&quot;{&amp;quot;1&amp;quot;:3,&amp;quot;3&amp;quot;:0}&quot;&gt;0&lt;/td&gt;&lt;td style=&quot;border: 1px solid rgb(204, 204, 204); overflow: hidden; padding: 2px 3px; vertical-align: bottom; text-align: center;&quot; data-sheets-value=&quot;{&amp;quot;1&amp;quot;:3,&amp;quot;3&amp;quot;:0}&quot;&gt;0&lt;/td&gt;&lt;/tr&gt;&lt;tr style=&quot;border-color: rgb(0, 0, 0); height: 21px;&quot;&gt;&lt;td style=&quot;border: 1px solid rgb(204, 204, 204); overflow: hidden; padding: 2px 3px; vertical-align: bottom; text-align: center;&quot; data-sheets-value=&quot;{&amp;quot;1&amp;quot;:3,&amp;quot;3&amp;quot;:1}&quot;&gt;1&lt;/td&gt;&lt;td style=&quot;border: 1px solid rgb(204, 204, 204); overflow: hidden; padding: 2px 3px; vertical-align: bottom; text-align: center;&quot; data-sheets-value=&quot;{&amp;quot;1&amp;quot;:3,&amp;quot;3&amp;quot;:0}&quot;&gt;0&lt;/td&gt;&lt;td style=&quot;border: 1px solid rgb(204, 204, 204); overflow: hidden; padding: 2px 3px; vertical-align: bottom; text-align: center;&quot; data-sheets-formula=&quot;=&amp;quot;+&amp;quot;&quot; data-sheets-value=&quot;{&amp;quot;1&amp;quot;:2,&amp;quot;2&amp;quot;:&amp;quot;+&amp;quot;}&quot;&gt;+&lt;/td&gt;&lt;td style=&quot;border: 1px solid rgb(204, 204, 204); overflow: hidden; padding: 2px 3px; vertical-align: bottom; text-align: center;&quot; data-sheets-value=&quot;{&amp;quot;1&amp;quot;:3,&amp;quot;3&amp;quot;:1}&quot;&gt;1&lt;/td&gt;&lt;td style=&quot;border: 1px solid rgb(204, 204, 204); overflow: hidden; padding: 2px 3px; vertical-align: bottom; text-align: center;&quot; data-sheets-value=&quot;{&amp;quot;1&amp;quot;:3,&amp;quot;3&amp;quot;:1}&quot;&gt;1&lt;/td&gt;&lt;td style=&quot;border: 1px solid rgb(204, 204, 204); overflow: hidden; padding: 2px 3px; vertical-align: bottom; background-color: rgb(0, 0, 0);&quot;&gt;&lt;/td&gt;&lt;td style=&quot;border: 1px solid rgb(204, 204, 204); overflow: hidden; padding: 2px 3px; vertical-align: bottom; text-align: center;&quot; data-sheets-value=&quot;{&amp;quot;1&amp;quot;:3,&amp;quot;3&amp;quot;:1}&quot;&gt;1&lt;/td&gt;&lt;td style=&quot;border: 1px solid rgb(204, 204, 204); overflow: hidden; padding: 2px 3px; vertical-align: bottom; text-align: center;&quot; data-sheets-value=&quot;{&amp;quot;1&amp;quot;:3,&amp;quot;3&amp;quot;:0}&quot;&gt;0&lt;/td&gt;&lt;td style=&quot;border: 1px solid rgb(204, 204, 204); overflow: hidden; padding: 2px 3px; vertical-align: bottom; text-align: center;&quot; data-sheets-value=&quot;{&amp;quot;1&amp;quot;:3,&amp;quot;3&amp;quot;:1}&quot;&gt;1&lt;/td&gt;&lt;/tr&gt;&lt;tr style=&quot;border-color: rgb(0, 0, 0); height: 21px;&quot;&gt;&lt;td style=&quot;border: 1px solid rgb(204, 204, 204); overflow: hidden; padding: 2px 3px; vertical-align: bottom; text-align: center;&quot; data-sheets-value=&quot;{&amp;quot;1&amp;quot;:3,&amp;quot;3&amp;quot;:1}&quot;&gt;1&lt;/td&gt;&lt;td style=&quot;border: 1px solid rgb(204, 204, 204); overflow: hidden; padding: 2px 3px; vertical-align: bottom; text-align: center;&quot; data-sheets-value=&quot;{&amp;quot;1&amp;quot;:3,&amp;quot;3&amp;quot;:1}&quot;&gt;1&lt;/td&gt;&lt;td style=&quot;border: 1px solid rgb(204, 204, 204); overflow: hidden; padding: 2px 3px; vertical-align: bottom; text-align: center;&quot; data-sheets-formula=&quot;=&amp;quot;+&amp;quot;&quot; data-sheets-value=&quot;{&amp;quot;1&amp;quot;:2,&amp;quot;2&amp;quot;:&amp;quot;+&amp;quot;}&quot;&gt;+&lt;/td&gt;&lt;td style=&quot;border: 1px solid rgb(204, 204, 204); overflow: hidden; padding: 2px 3px; vertical-align: bottom; text-align: center;&quot; data-sheets-value=&quot;{&amp;quot;1&amp;quot;:3,&amp;quot;3&amp;quot;:0}&quot;&gt;0&lt;/td&gt;&lt;td style=&quot;border: 1px solid rgb(204, 204, 204); overflow: hidden; padding: 2px 3px; vertical-align: bottom; text-align: center;&quot; data-sheets-value=&quot;{&amp;quot;1&amp;quot;:3,&amp;quot;3&amp;quot;:0}&quot;&gt;0&lt;/td&gt;&lt;td style=&quot;border: 1px solid rgb(204, 204, 204); overflow: hidden; padding: 2px 3px; vertical-align: bottom; background-color: rgb(0, 0, 0);&quot;&gt;&lt;/td&gt;&lt;td style=&quot;border: 1px solid rgb(204, 204, 204); overflow: hidden; padding: 2px 3px; vertical-align: bottom; text-align: center;&quot; data-sheets-value=&quot;{&amp;quot;1&amp;quot;:3,&amp;quot;3&amp;quot;:0}&quot;&gt;0&lt;/td&gt;&lt;td style=&quot;border: 1px solid rgb(204, 204, 204); overflow: hidden; padding: 2px 3px; vertical-align: bottom; text-align: center;&quot; data-sheets-value=&quot;{&amp;quot;1&amp;quot;:3,&amp;quot;3&amp;quot;:1}&quot;&gt;1&lt;/td&gt;&lt;td style=&quot;border: 1px solid rgb(204, 204, 204); overflow: hidden; padding: 2px 3px; vertical-align: bottom; text-align: center;&quot; data-sheets-value=&quot;{&amp;quot;1&amp;quot;:3,&amp;quot;3&amp;quot;:1}&quot;&gt;1&lt;/td&gt;&lt;/tr&gt;&lt;tr style=&quot;border-color: rgb(0, 0, 0); height: 21px;&quot;&gt;&lt;td style=&quot;border: 1px solid rgb(204, 204, 204); overflow: hidden; padding: 2px 3px; vertical-align: bottom; text-align: center;&quot; data-sheets-value=&quot;{&amp;quot;1&amp;quot;:3,&amp;quot;3&amp;quot;:1}&quot;&gt;1&lt;/td&gt;&lt;td style=&quot;border: 1px solid rgb(204, 204, 204); overflow: hidden; padding: 2px 3px; vertical-align: bottom; text-align: center;&quot; data-sheets-value=&quot;{&amp;quot;1&amp;quot;:3,&amp;quot;3&amp;quot;:1}&quot;&gt;1&lt;/td&gt;&lt;td style=&quot;border: 1px solid rgb(204, 204, 204); overflow: hidden; padding: 2px 3px; vertical-align: bottom; text-align: center;&quot; data-sheets-formula=&quot;=&amp;quot;+&amp;quot;&quot; data-sheets-value=&quot;{&amp;quot;1&amp;quot;:2,&amp;quot;2&amp;quot;:&amp;quot;+&amp;quot;}&quot;&gt;+&lt;/td&gt;&lt;td style=&quot;border: 1px solid rgb(204, 204, 204); overflow: hidden; padding: 2px 3px; vertical-align: bottom; text-align: center;&quot; data-sheets-value=&quot;{&amp;quot;1&amp;quot;:3,&amp;quot;3&amp;quot;:0}&quot;&gt;0&lt;/td&gt;&lt;td style=&quot;border: 1px solid rgb(204, 204, 204); overflow: hidden; padding: 2px 3px; vertical-align: bottom; text-align: center;&quot; data-sheets-value=&quot;{&amp;quot;1&amp;quot;:3,&amp;quot;3&amp;quot;:1}&quot;&gt;1&lt;/td&gt;&lt;td style=&quot;border: 1px solid rgb(204, 204, 204); overflow: hidden; padding: 2px 3px; vertical-align: bottom; background-color: rgb(0, 0, 0);&quot;&gt;&lt;/td&gt;&lt;td style=&quot;border: 1px solid rgb(204, 204, 204); overflow: hidden; padding: 2px 3px; vertical-align: bottom; text-align: center;&quot; data-sheets-value=&quot;{&amp;quot;1&amp;quot;:3,&amp;quot;3&amp;quot;:1}&quot;&gt;1&lt;/td&gt;&lt;td style=&quot;border: 1px solid rgb(204, 204, 204); overflow: hidden; padding: 2px 3px; vertical-align: bottom; text-align: center;&quot; data-sheets-value=&quot;{&amp;quot;1&amp;quot;:3,&amp;quot;3&amp;quot;:0}&quot;&gt;0&lt;/td&gt;&lt;td style=&quot;border: 1px solid rgb(204, 204, 204); overflow: hidden; padding: 2px 3px; vertical-align: bottom; text-align: center;&quot; data-sheets-value=&quot;{&amp;quot;1&amp;quot;:3,&amp;quot;3&amp;quot;:0}&quot;&gt;0&lt;/td&gt;&lt;/tr&gt;&lt;tr style=&quot;border-color: rgb(0, 0, 0); height: 21px;&quot;&gt;&lt;td style=&quot;border: 1px solid rgb(204, 204, 204); overflow: hidden; padding: 2px 3px; vertical-align: bottom; text-align: center;&quot; data-sheets-value=&quot;{&amp;quot;1&amp;quot;:3,&amp;quot;3&amp;quot;:1}&quot;&gt;1&lt;/td&gt;&lt;td style=&quot;border: 1px solid rgb(204, 204, 204); overflow: hidden; padding: 2px 3px; vertical-align: bottom; text-align: center;&quot; data-sheets-value=&quot;{&amp;quot;1&amp;quot;:3,&amp;quot;3&amp;quot;:1}&quot;&gt;1&lt;/td&gt;&lt;td style=&quot;border: 1px solid rgb(204, 204, 204); overflow: hidden; padding: 2px 3px; vertical-align: bottom; text-align: center;&quot; data-sheets-formula=&quot;=&amp;quot;+&amp;quot;&quot; data-sheets-value=&quot;{&amp;quot;1&amp;quot;:2,&amp;quot;2&amp;quot;:&amp;quot;+&amp;quot;}&quot;&gt;+&lt;/td&gt;&lt;td style=&quot;border: 1px solid rgb(204, 204, 204); overflow: hidden; padding: 2px 3px; vertical-align: bottom; text-align: center;&quot; data-sheets-value=&quot;{&amp;quot;1&amp;quot;:3,&amp;quot;3&amp;quot;:1}&quot;&gt;1&lt;/td&gt;&lt;td style=&quot;border: 1px solid rgb(204, 204, 204); overflow: hidden; padding: 2px 3px; vertical-align: bottom; text-align: center;&quot; data-sheets-value=&quot;{&amp;quot;1&amp;quot;:3,&amp;quot;3&amp;quot;:0}&quot;&gt;0&lt;/td&gt;&lt;td style=&quot;border: 1px solid rgb(204, 204, 204); overflow: hidden; padding: 2px 3px; vertical-align: bottom; background-color: rgb(0, 0, 0);&quot;&gt;&lt;/td&gt;&lt;td style=&quot;border: 1px solid rgb(204, 204, 204); overflow: hidden; padding: 2px 3px; vertical-align: bottom; text-align: center;&quot; data-sheets-value=&quot;{&amp;quot;1&amp;quot;:3,&amp;quot;3&amp;quot;:1}&quot;&gt;1&lt;/td&gt;&lt;td style=&quot;border: 1px solid rgb(204, 204, 204); overflow: hidden; padding: 2px 3px; vertical-align: bottom; text-align: center;&quot; data-sheets-value=&quot;{&amp;quot;1&amp;quot;:3,&amp;quot;3&amp;quot;:0}&quot;&gt;0&lt;/td&gt;&lt;td style=&quot;border: 1px solid rgb(204, 204, 204); overflow: hidden; padding: 2px 3px; vertical-align: bottom; text-align: center;&quot; data-sheets-value=&quot;{&amp;quot;1&amp;quot;:3,&amp;quot;3&amp;quot;:1}&quot;&gt;1&lt;/td&gt;&lt;/tr&gt;&lt;tr style=&quot;border-color: rgb(0, 0, 0); height: 21px;&quot;&gt;&lt;td style=&quot;border: 1px solid rgb(204, 204, 204); overflow: hidden; padding: 2px 3px; vertical-align: bottom; text-align: center;&quot; data-sheets-value=&quot;{&amp;quot;1&amp;quot;:3,&amp;quot;3&amp;quot;:1}&quot;&gt;1&lt;/td&gt;&lt;td style=&quot;border: 1px solid rgb(204, 204, 204); overflow: hidden; padding: 2px 3px; vertical-align: bottom; text-align: center;&quot; data-sheets-value=&quot;{&amp;quot;1&amp;quot;:3,&amp;quot;3&amp;quot;:1}&quot;&gt;1&lt;/td&gt;&lt;td style=&quot;border: 1px solid rgb(204, 204, 204); overflow: hidden; padding: 2px 3px; vertical-align: bottom; text-align: center;&quot; data-sheets-formula=&quot;=&amp;quot;+&amp;quot;&quot; data-sheets-value=&quot;{&amp;quot;1&amp;quot;:2,&amp;quot;2&amp;quot;:&amp;quot;+&amp;quot;}&quot;&gt;+&lt;/td&gt;&lt;td style=&quot;border: 1px solid rgb(204, 204, 204); overflow: hidden; padding: 2px 3px; vertical-align: bottom; text-align: center;&quot; data-sheets-value=&quot;{&amp;quot;1&amp;quot;:3,&amp;quot;3&amp;quot;:1}&quot;&gt;1&lt;/td&gt;&lt;td style=&quot;border: 1px solid rgb(204, 204, 204); overflow: hidden; padding: 2px 3px; vertical-align: bottom; text-align: center;&quot; data-sheets-value=&quot;{&amp;quot;1&amp;quot;:3,&amp;quot;3&amp;quot;:1}&quot;&gt;1&lt;/td&gt;&lt;td style=&quot;border: 1px solid rgb(204, 204, 204); overflow: hidden; padding: 2px 3px; vertical-align: bottom; background-color: rgb(0, 0, 0);&quot;&gt;&lt;/td&gt;&lt;td style=&quot;border: 1px solid rgb(204, 204, 204); overflow: hidden; padding: 2px 3px; vertical-align: bottom; text-align: center;&quot; data-sheets-value=&quot;{&amp;quot;1&amp;quot;:3,&amp;quot;3&amp;quot;:1}&quot;&gt;1&lt;/td&gt;&lt;td style=&quot;border: 1px solid rgb(204, 204, 204); overflow: hidden; padding: 2px 3px; vertical-align: bottom; text-align: center;&quot; data-sheets-value=&quot;{&amp;quot;1&amp;quot;:3,&amp;quot;3&amp;quot;:1}&quot;&gt;1&lt;/td&gt;&lt;td style=&quot;border: 1px solid rgb(204, 204, 204); overflow: hidden; padding: 2px 3px; vertical-align: bottom; text-align: center;&quot; data-sheets-value=&quot;{&amp;quot;1&amp;quot;:3,&amp;quot;3&amp;quot;:0}&quot;&gt;0&lt;/td&gt;&lt;/tr&gt;&lt;/tbody&gt;&lt;/table&gt;" style="text;whiteSpace=wrap;html=1;fontColor=#000000;" vertex="1" parent="1">
                    <mxGeometry x="-1140" y="340" width="290" height="380" as="geometry"/>
                </mxCell>
            </root>
        </mxGraphModel>
    </diagram>
</mxfile>